<?xml version="1.0" standalone="no"?>
<!DOCTYPE svg PUBLIC "-//W3C//DTD SVG 20010904//EN"
 "http://www.w3.org/TR/2001/REC-SVG-20010904/DTD/svg10.dtd">
<svg version="1.0" xmlns="http://www.w3.org/2000/svg"
 width="300.000000pt" height="300.000000pt" viewBox="0 0 300.000000 300.000000"
 preserveAspectRatio="xMidYMid meet">
<metadata>
Created by potrace 1.10, written by Peter Selinger 2001-2011
</metadata>
<g transform="translate(0.000000,300.000000) scale(0.100000,-0.100000)"
fill="#161c24" stroke="none">
<path d="M0 1500 l0 -1500 1500 0 1500 0 0 1500 0 1500 -1500 0 -1500 0 0
-1500z m1596 1132 c111 -92 271 -94 366 -4 33 30 43 25 28 -14 -24 -62 19
-173 93 -241 70 -65 174 -87 266 -58 l24 8 -26 -34 c-14 -19 -33 -61 -42 -95
-22 -76 -9 -151 38 -221 37 -55 117 -113 156 -113 46 0 43 -12 -8 -42 -90 -50
-137 -145 -129 -257 6 -78 32 -135 82 -179 20 -17 36 -33 36 -34 0 -2 -23 -1
-50 0 -98 7 -219 -81 -254 -185 -20 -59 -20 -133 -1 -180 8 -20 14 -38 11 -40
-2 -2 -20 6 -39 17 -76 45 -196 34 -286 -25 -54 -37 -103 -115 -109 -175 -5
-52 -16 -65 -27 -31 -9 28 -64 79 -110 103 -55 29 -149 35 -211 14 -57 -18
-118 -65 -145 -110 l-19 -31 0 36 c0 84 -85 196 -178 236 -59 26 -168 23 -216
-5 -21 -13 -40 -21 -42 -19 -3 2 3 21 12 43 22 51 15 154 -14 209 -48 93 -126
146 -224 153 l-68 5 40 34 c55 48 82 104 88 184 4 56 1 75 -20 121 -32 69 -80
124 -124 140 -44 16 -43 24 4 31 84 14 177 106 203 201 18 66 5 150 -31 208
-30 49 -30 50 -8 44 155 -47 317 47 356 206 7 27 9 67 6 90 l-7 43 34 -32 c50
-47 103 -66 181 -66 117 0 230 76 259 173 l13 41 26 -58 c16 -36 42 -72 66
-91z m-1138 -2053 c28 -9 30 -13 20 -34 -10 -22 -12 -22 -44 -9 -44 18 -69 18
-89 -2 -14 -15 -15 -18 0 -34 8 -9 33 -22 54 -28 88 -27 117 -87 66 -137 -33
-33 -112 -37 -167 -9 -29 15 -34 29 -18 54 7 12 12 12 29 -4 29 -26 103 -33
121 -11 21 25 3 45 -65 69 -67 24 -92 55 -81 99 12 49 99 72 174 46z m289 -5
c39 -19 63 -50 72 -97 31 -144 -159 -234 -258 -122 -65 75 -46 174 44 223 30
17 102 14 142 -4z m175 -104 l-3 -120 65 0 c59 0 66 -2 66 -20 0 -18 -7 -20
-80 -20 -44 0 -83 -1 -86 -2 -3 -2 -6 61 -7 140 l-2 142 25 0 25 0 -3 -120z
m371 -12 c32 -73 60 -138 63 -144 3 -8 -5 -11 -22 -10 -20 1 -30 9 -41 34
l-13 32 -74 0 -74 0 -11 -32 c-8 -26 -17 -33 -36 -33 -15 0 -23 5 -21 11 3 7
30 71 62 143 52 120 59 131 83 131 24 0 31 -11 84 -132z m306 111 c31 -18 32
-22 18 -36 -14 -14 -17 -14 -38 1 -82 57 -193 -39 -148 -127 28 -55 100 -74
148 -41 21 15 24 15 39 0 15 -15 15 -17 -3 -30 -11 -8 -38 -19 -61 -25 -55
-14 -105 1 -143 44 -65 75 -46 174 44 223 33 19 107 14 144 -9z m287 -12 c37
-44 29 -112 -18 -145 -18 -13 -17 -15 12 -52 36 -45 38 -61 8 -57 -15 1 -33
18 -51 45 -24 38 -31 42 -67 42 l-40 0 0 -44 c0 -40 -2 -43 -25 -43 l-25 0 0
144 0 145 91 -4 c85 -3 92 -5 115 -31z m143 -38 l39 -71 38 71 c33 60 43 71
66 71 l27 0 -55 -96 c-44 -79 -54 -104 -54 -143 0 -43 -2 -47 -22 -46 -20 2
-23 7 -20 44 3 43 -1 50 -86 199 l-24 42 26 0 c21 0 32 -12 65 -71z m402 42
c31 -32 39 -84 18 -123 -14 -27 -69 -48 -124 -48 l-45 0 0 -43 c0 -38 -3 -43
-21 -42 -21 1 -22 6 -23 143 l-1 142 83 0 c79 0 85 -2 113 -29z m279 9 c0 -17
-7 -20 -51 -20 l-50 0 2 -122 c1 -121 1 -123 -21 -123 -22 0 -22 2 -21 122 l2
122 -48 3 c-36 2 -49 7 -51 21 -3 15 8 17 117 17 114 0 121 -1 121 -20z"/>
<path d="M1465 2647 c-22 -24 -65 -58 -95 -76 -38 -23 -46 -30 -25 -24 17 4
93 8 171 8 l141 0 -31 18 c-34 20 -106 94 -106 108 0 18 -17 8 -55 -34z"/>
<path d="M1050 2550 c0 -36 -49 -137 -79 -164 -12 -11 -21 -24 -21 -30 0 -7 3
-7 8 1 18 28 193 131 267 156 l40 14 -63 11 c-35 6 -77 18 -94 27 -46 22 -58
19 -58 -15z"/>
<path d="M1905 2559 c-22 -10 -64 -21 -93 -25 -57 -7 -57 -13 -2 -34 19 -8 64
-31 99 -52 34 -21 67 -38 71 -38 4 0 18 -11 31 -25 37 -38 44 -30 11 13 -16
20 -37 62 -47 92 -31 96 -25 90 -70 69z"/>
<path d="M1358 2520 c-241 -43 -454 -204 -566 -425 -62 -124 -77 -194 -77
-360 0 -132 3 -159 24 -220 93 -274 273 -452 541 -537 65 -20 95 -23 225 -23
142 1 155 2 241 32 127 44 224 104 313 194 217 217 288 519 191 810 -40 120
-101 219 -191 308 -89 90 -188 151 -313 193 -79 27 -107 31 -216 34 -69 2
-146 -1 -172 -6z m243 -292 c94 -50 99 -55 99 -85 l0 -33 33 16 c33 16 34 16
135 -41 l102 -57 0 -129 c0 -128 0 -128 -26 -142 l-26 -14 26 -16 c26 -17 26
-19 26 -141 0 -87 -4 -126 -12 -133 -7 -6 -55 -32 -105 -59 l-93 -49 -30 18
-30 18 0 -33 c0 -31 -5 -36 -94 -85 -52 -29 -100 -53 -108 -53 -7 1 -56 25
-108 54 -84 48 -95 57 -93 80 2 29 -7 32 -37 14 -18 -11 -31 -8 -97 27 -42 22
-89 48 -104 57 l-29 18 0 128 0 129 27 12 28 13 -28 14 -28 15 3 130 3 131 99
55 c92 51 101 54 125 42 14 -7 30 -15 34 -17 5 -2 7 10 5 27 -3 30 1 34 92 85
52 30 99 54 103 55 5 1 53 -23 108 -51z"/>
<path d="M1417 2206 l-79 -43 26 -16 c14 -10 28 -17 30 -17 3 0 28 -13 55 -29
l50 -30 81 46 81 46 -78 43 c-43 24 -80 43 -83 44 -3 0 -40 -20 -83 -44z"/>
<path d="M1320 2117 c0 -19 12 -29 60 -52 56 -27 60 -31 60 -63 0 -33 1 -34
23 -19 13 9 22 25 22 41 0 23 -11 33 -82 71 -81 44 -83 45 -83 22z"/>
<path d="M1593 2094 c-73 -40 -83 -49 -83 -73 0 -20 7 -31 25 -39 24 -11 25
-10 25 21 0 31 5 36 60 62 48 23 60 33 60 52 0 13 -1 23 -2 22 -2 0 -40 -21
-85 -45z"/>
<path d="M1153 2067 c-67 -37 -89 -57 -63 -57 6 0 41 -17 78 -38 l68 -39 83
45 83 45 -79 43 c-43 24 -82 43 -88 43 -5 -1 -43 -19 -82 -42z"/>
<path d="M1676 2066 l-78 -44 82 -45 82 -45 69 39 c38 22 73 39 79 39 26 0 4
18 -69 58 -43 23 -80 42 -82 42 -2 0 -39 -20 -83 -44z"/>
<path d="M1060 1892 l0 -107 81 -43 c44 -24 81 -42 82 -40 1 1 1 50 -1 108
l-3 105 -80 42 -79 43 0 -108z"/>
<path d="M1328 1953 l-78 -45 0 -104 c0 -57 3 -104 8 -104 29 1 36 21 33 103
l-3 84 64 35 c43 24 64 42 66 56 4 29 1 28 -90 -25z"/>
<path d="M1582 1979 c2 -16 20 -32 60 -53 l58 -31 0 -87 c0 -76 3 -89 19 -98
11 -5 22 -10 25 -10 3 0 6 47 6 104 l0 104 -77 44 c-100 55 -95 54 -91 27z"/>
<path d="M1853 1954 l-83 -46 0 -105 c0 -59 4 -103 9 -101 5 2 43 21 85 43
l76 40 0 108 c0 59 -1 107 -2 106 -2 0 -40 -21 -85 -45z"/>
<path d="M1465 1956 c-11 -7 -44 -27 -73 -43 l-54 -30 80 -45 80 -45 82 45 82
45 -79 43 c-86 48 -89 49 -118 30z"/>
<path d="M1320 1753 l0 -108 77 -40 c42 -22 81 -41 85 -43 4 -2 8 44 8 101 l0
105 -77 44 c-43 23 -81 45 -85 46 -5 2 -8 -45 -8 -105z"/>
<path d="M1588 1813 l-78 -45 0 -105 c0 -58 4 -103 8 -101 4 2 43 21 85 43
l77 40 0 108 c0 59 -3 106 -7 106 -5 -1 -43 -22 -85 -46z"/>
<path d="M1093 1723 c-24 -9 -13 -20 67 -62 77 -41 80 -41 110 -26 18 9 30 23
30 35 0 24 -8 25 -37 5 -21 -15 -27 -13 -85 17 -76 40 -70 37 -85 31z"/>
<path d="M1823 1694 c-60 -34 -63 -35 -92 -19 -30 15 -31 15 -31 -4 0 -13 12
-27 30 -36 30 -16 33 -15 108 26 94 51 90 48 72 59 -20 13 -17 14 -87 -26z"/>
<path d="M1060 1576 l0 -104 76 -41 c41 -23 79 -41 82 -41 4 0 5 47 2 106 l-5
105 -72 40 c-40 21 -75 39 -78 39 -3 0 -5 -47 -5 -104z"/>
<path d="M1848 1637 l-78 -42 0 -108 0 -109 33 20 c17 10 56 32 85 47 l52 28
0 104 c0 56 -3 103 -7 103 -5 -1 -43 -20 -85 -43z"/>
<path d="M1277 1612 c-27 -16 -27 -18 -27 -126 l0 -108 22 14 c19 13 21 22 19
95 -2 77 -1 81 25 100 26 20 27 21 8 31 -15 8 -26 6 -47 -6z"/>
<path d="M1665 1611 c-3 -6 3 -15 14 -21 17 -9 21 -22 23 -96 3 -77 6 -88 26
-102 l22 -14 0 109 c0 108 0 110 -25 121 -31 14 -52 15 -60 3z"/>
<path d="M1350 1580 c-18 -11 -22 -7 72 -58 l78 -42 80 42 c44 24 80 46 80 49
0 22 -40 15 -97 -17 l-64 -35 -63 35 c-73 41 -66 39 -86 26z"/>
<path d="M1320 1441 l0 -108 53 -28 c28 -15 67 -37 85 -47 l32 -20 0 109 -1
108 -84 46 -85 47 0 -107z"/>
<path d="M1593 1502 l-83 -47 0 -107 0 -108 63 36 c34 19 72 40 85 46 21 11
22 17 22 120 0 59 -1 108 -2 107 -2 0 -40 -21 -85 -47z"/>
<path d="M2061 2343 c-1 -6 11 -22 27 -35 43 -37 114 -135 149 -207 l33 -66 0
80 c1 44 7 96 14 116 l12 36 -60 10 c-34 6 -74 17 -91 24 -16 7 -33 12 -37 11
-5 -1 -8 3 -8 8 0 6 -6 10 -14 10 -8 0 -17 6 -19 13 -4 8 -6 8 -6 0z"/>
<path d="M895 2324 c-22 -16 -68 -30 -135 -39 -25 -4 -46 -8 -48 -9 -1 -2 2
-16 9 -32 16 -42 22 -141 10 -175 -6 -18 -6 -29 0 -29 5 0 9 6 9 13 0 18 100
174 140 220 19 20 35 44 36 52 3 18 4 18 -21 -1z"/>
<path d="M696 1992 c-31 -49 -66 -85 -105 -108 -39 -23 -45 -40 -23 -63 58
-60 87 -119 99 -198 7 -49 -15 -135 -46 -185 l-29 -45 41 -13 c79 -24 156 -90
198 -172 17 -33 23 -61 23 -120 1 -69 3 -77 19 -72 30 9 122 6 167 -6 82 -22
157 -86 200 -171 l21 -40 32 19 c82 51 113 63 167 69 80 7 146 -11 207 -57 48
-36 52 -37 67 -21 9 10 16 24 16 32 0 8 19 38 42 66 67 80 181 122 286 105
l52 -9 0 55 c0 99 29 164 108 238 30 29 130 84 152 84 5 0 -6 28 -23 62 -28
54 -32 71 -32 142 1 95 24 153 85 212 32 31 36 39 25 51 -8 7 -17 13 -22 13
-16 0 -93 79 -119 121 -16 27 -23 34 -19 19 33 -122 45 -320 25 -405 -7 -27
-14 -59 -15 -71 -2 -12 -10 -35 -19 -52 -9 -17 -16 -38 -16 -47 0 -8 -4 -15
-9 -15 -5 0 -12 -12 -16 -27 -3 -15 -15 -39 -26 -54 -10 -15 -19 -31 -19 -36
0 -11 -103 -128 -135 -154 -11 -9 -36 -31 -55 -48 -19 -17 -41 -31 -47 -31 -7
0 -13 -4 -13 -10 0 -15 -137 -77 -225 -101 -126 -35 -367 -31 -464 8 -96 38
-185 82 -209 103 -9 9 -35 29 -57 45 -139 103 -295 371 -295 507 0 21 -4 38
-8 38 -10 0 -8 85 2 180 7 60 13 87 37 164 13 44 4 43 -25 -2z"/>
<path d="M604 516 c-38 -38 -43 -70 -19 -116 19 -37 43 -50 92 -50 94 0 134
114 61 175 -44 37 -91 34 -134 -9z"/>
<path d="M1178 474 l-27 -64 56 0 c40 0 54 3 50 13 -3 6 -13 32 -22 57 -10 25
-21 48 -24 52 -3 4 -18 -22 -33 -58z"/>
<path d="M1730 490 l0 -61 53 6 c117 13 115 115 -3 115 l-50 0 0 -60z"/>
<path d="M2280 489 l0 -61 53 6 c117 14 115 116 -3 116 l-50 0 0 -61z"/>
</g>
</svg>
