<?xml version="1.0" standalone="no"?>
<!DOCTYPE svg PUBLIC "-//W3C//DTD SVG 20010904//EN"
 "http://www.w3.org/TR/2001/REC-SVG-20010904/DTD/svg10.dtd">
<svg version="1.0" xmlns="http://www.w3.org/2000/svg"
 width="300.000000pt" height="300.000000pt" viewBox="0 0 300.000000 300.000000"
 preserveAspectRatio="xMidYMid meet">
<metadata>
Created by potrace 1.10, written by Peter Selinger 2001-2011
</metadata>
<g transform="translate(0.000000,300.000000) scale(0.100000,-0.100000)"
fill="#000000" stroke="none">
<path d="M1491 2740 c-29 -97 -142 -173 -259 -173 -78 0 -131 19 -181 66 l-34
32 7 -43 c3 -23 1 -63 -6 -90 -39 -159 -201 -253 -356 -206 -22 6 -22 5 8 -44
36 -58 49 -142 31 -208 -26 -95 -119 -187 -203 -201 -47 -7 -48 -15 -4 -31 44
-16 92 -71 124 -140 46 -102 18 -231 -68 -305 l-40 -34 68 -5 c98 -7 176 -60
224 -153 29 -55 36 -158 14 -209 -9 -22 -15 -41 -12 -43 2 -2 21 6 42 19 48
28 157 31 216 5 93 -40 178 -152 178 -236 l0 -36 19 31 c87 142 306 165 428
44 18 -17 35 -40 38 -51 11 -34 22 -21 27 31 6 60 55 138 109 175 90 59 210
70 286 25 19 -11 37 -19 39 -17 3 2 -3 20 -11 40 -19 47 -19 121 1 180 35 104
156 192 254 185 27 -1 50 -2 50 0 0 1 -16 17 -36 34 -50 44 -76 101 -82 179
-8 112 39 207 129 257 51 30 54 42 8 42 -39 0 -119 58 -156 113 -47 70 -60
145 -38 221 9 34 28 76 42 95 l26 34 -24 -8 c-92 -29 -196 -7 -266 58 -74 68
-117 179 -93 241 15 39 5 44 -28 14 -69 -65 -178 -85 -272 -49 -78 29 -128 74
-160 144 l-26 58 -13 -41z m29 -59 c0 -14 72 -88 106 -108 l31 -18 -141 0
c-78 0 -154 -4 -171 -8 -21 -6 -13 1 25 24 30 18 73 52 95 76 38 42 55 52 55
34z m-412 -116 c17 -9 59 -21 94 -27 l63 -11 -40 -14 c-74 -25 -249 -128 -267
-156 -5 -8 -8 -8 -8 -1 0 6 9 19 21 30 30 27 79 128 79 164 0 34 12 37 58 15z
m867 -75 c10 -30 31 -72 47 -92 33 -43 26 -51 -11 -13 -13 14 -27 25 -31 25
-4 0 -37 17 -71 38 -35 21 -80 44 -99 52 -55 21 -55 27 2 34 29 4 71 15 93 25
45 21 39 27 70 -69z m-229 2 c125 -42 224 -103 313 -193 311 -310 311 -806 0
-1118 -89 -90 -186 -150 -313 -194 -86 -30 -99 -31 -241 -32 -130 0 -160 3
-225 23 -268 85 -448 263 -541 537 -21 61 -24 88 -24 220 0 130 3 160 23 225
69 219 209 389 402 485 137 68 218 85 390 81 109 -3 137 -7 216 -34z m340
-162 c8 0 14 -4 14 -10 0 -5 3 -9 8 -8 4 1 21 -4 37 -11 17 -7 57 -18 91 -24
l60 -10 -12 -36 c-7 -20 -13 -72 -14 -116 l0 -80 -33 66 c-35 72 -106 170
-149 207 -16 13 -28 29 -27 35 0 8 2 8 6 0 2 -7 11 -13 19 -13z m-1170 -5 c-1
-8 -17 -32 -36 -52 -40 -46 -140 -202 -140 -220 0 -7 -4 -13 -9 -13 -6 0 -6
11 0 29 12 34 6 133 -10 175 -7 16 -10 30 -9 32 2 1 23 5 48 9 67 9 113 23
135 39 25 19 24 19 21 1z m-195 -331 c-24 -77 -30 -104 -37 -164 -10 -95 -12
-180 -2 -180 4 0 8 -17 8 -38 0 -136 156 -404 295 -507 22 -16 48 -36 57 -45
24 -21 113 -65 209 -103 97 -39 338 -43 464 -8 88 24 225 86 225 101 0 6 6 10
13 10 6 0 28 14 47 31 19 17 44 39 55 48 32 26 135 143 135 154 0 5 9 21 19
36 11 15 23 39 26 54 4 15 11 27 16 27 5 0 9 7 9 15 0 9 7 30 16 47 9 17 17
40 19 52 1 12 8 44 15 71 20 85 8 283 -25 405 -4 15 3 8 19 -19 26 -42 103
-121 119 -121 5 0 14 -6 22 -13 11 -12 7 -20 -25 -51 -61 -59 -84 -117 -85
-212 0 -71 4 -88 32 -142 17 -34 28 -62 23 -62 -22 0 -122 -55 -152 -84 -79
-74 -108 -139 -108 -238 l0 -55 -52 9 c-105 17 -219 -25 -286 -105 -23 -28
-42 -58 -42 -66 0 -8 -7 -22 -16 -32 -15 -16 -19 -15 -67 21 -61 46 -127 64
-207 57 -54 -6 -85 -18 -167 -69 l-32 -19 -21 40 c-43 85 -118 149 -200 171
-45 12 -137 15 -167 6 -16 -5 -18 3 -19 72 0 59 -6 87 -23 120 -42 82 -119
148 -198 172 l-41 13 29 45 c77 122 57 268 -53 383 -22 23 -16 40 23 63 39 23
74 59 105 108 29 45 38 46 25 2z"/>
<path d="M1390 2224 c-91 -51 -95 -55 -92 -85 2 -17 0 -29 -5 -27 -4 2 -20 10
-34 17 -24 12 -33 9 -125 -42 l-99 -55 -3 -131 -3 -130 28 -15 28 -14 -28 -13
-27 -12 0 -129 0 -128 29 -18 c15 -9 62 -35 104 -57 66 -35 79 -38 97 -27 30
18 39 15 37 -14 -2 -23 9 -32 93 -80 52 -29 101 -53 108 -54 8 0 56 24 108 53
89 49 94 54 94 85 l0 33 30 -18 30 -18 93 49 c50 27 98 53 105 59 8 7 12 46
12 133 0 122 0 124 -26 141 l-26 16 26 14 c26 14 26 14 26 142 l0 129 -102 57
c-101 57 -102 57 -135 41 l-33 -16 0 33 c0 30 -5 35 -99 85 -55 28 -103 52
-108 51 -4 -1 -51 -25 -103 -55z m193 -18 l78 -43 -81 -46 -81 -46 -50 30
c-27 16 -52 29 -55 29 -2 0 -16 7 -30 17 l-26 16 79 43 c43 24 80 44 83 44 3
-1 40 -20 83 -44z m-98 -182 c0 -16 -9 -32 -22 -41 -22 -15 -23 -14 -23 19 0
32 -4 36 -60 63 -48 23 -60 33 -60 52 0 23 2 22 83 -22 71 -38 82 -48 82 -71z
m195 93 c0 -19 -12 -29 -60 -52 -55 -26 -60 -31 -60 -62 0 -31 -1 -32 -25 -21
-18 8 -25 19 -25 39 0 24 10 33 83 73 45 24 83 45 85 45 1 1 2 -9 2 -22z
m-357 -51 l79 -43 -83 -45 -83 -45 -68 39 c-37 21 -72 38 -78 38 -5 0 -10 4
-10 8 0 9 138 89 155 91 6 0 45 -19 88 -43z m518 2 c73 -40 95 -58 69 -58 -6
0 -41 -17 -79 -39 l-69 -39 -82 45 -82 45 78 44 c44 24 81 44 83 44 2 0 39
-19 82 -42z m-619 -258 c2 -58 2 -107 1 -108 -1 -2 -38 16 -82 40 l-81 43 0
107 0 108 79 -43 80 -42 3 -105z m196 168 c-2 -14 -23 -32 -66 -56 l-64 -35 3
-84 c3 -82 -4 -102 -33 -103 -5 0 -8 47 -8 104 l0 104 78 45 c91 53 94 54 90
25z m255 -26 l77 -44 0 -104 c0 -57 -3 -104 -6 -104 -3 0 -14 5 -25 10 -16 9
-19 22 -19 98 l0 87 -58 31 c-40 21 -58 37 -60 53 -4 27 -9 28 91 -27z m267
-59 l0 -108 -76 -40 c-42 -22 -80 -41 -85 -43 -5 -2 -9 42 -9 101 l0 105 83
46 c45 24 83 45 85 45 1 1 2 -47 2 -106z m-357 33 l79 -43 -82 -45 -82 -45
-80 45 -80 45 54 30 c29 16 62 36 73 43 29 19 32 18 118 -30z m-170 -114 l77
-44 0 -105 c0 -57 -4 -103 -8 -101 -4 2 -43 21 -85 43 l-77 40 0 108 c0 60 3
107 8 105 4 -1 42 -23 85 -46z m267 -59 l0 -108 -77 -40 c-42 -22 -81 -41 -85
-43 -4 -2 -8 43 -8 101 l0 105 78 45 c42 24 80 45 85 46 4 0 7 -47 7 -106z
m-502 -61 c58 -30 64 -32 85 -17 29 20 37 19 37 -5 0 -12 -12 -26 -30 -35 -30
-15 -33 -15 -110 26 -80 42 -91 53 -67 62 15 6 9 9 85 -31z m732 28 c18 -11
22 -8 -72 -59 -75 -41 -78 -42 -108 -26 -18 9 -30 23 -30 36 0 19 1 19 31 4
29 -16 32 -15 92 19 70 40 67 39 87 26z m-767 -79 l72 -40 5 -105 c3 -59 2
-106 -2 -106 -3 0 -41 18 -82 41 l-76 41 0 104 c0 57 2 104 5 104 3 0 38 -18
78 -39z m797 -64 l0 -104 -52 -28 c-29 -15 -68 -37 -85 -47 l-33 -20 0 109 0
108 78 42 c42 23 80 42 85 43 4 0 7 -47 7 -103z m-624 10 c-26 -19 -27 -23
-25 -100 2 -73 0 -82 -19 -95 l-22 -14 0 108 c0 108 0 110 27 126 21 12 32 14
47 6 19 -10 18 -11 -8 -31z m409 21 c25 -11 25 -13 25 -121 l0 -109 -22 14
c-20 14 -23 25 -26 102 -2 74 -6 87 -23 96 -21 12 -17 30 6 30 8 0 26 -5 40
-12z m-289 -54 l63 -35 64 35 c57 32 97 39 97 17 0 -3 -36 -25 -80 -49 l-80
-42 -78 42 c-94 51 -90 47 -72 58 20 13 13 15 86 -26z m54 -207 l0 -109 -32
20 c-18 10 -57 32 -85 47 l-53 28 0 108 0 107 85 -47 84 -46 1 -108z m190 95
c0 -103 -1 -109 -22 -120 -13 -6 -51 -27 -85 -46 l-63 -36 0 108 0 107 83 47
c45 26 83 47 85 47 1 1 2 -48 2 -107z"/>
<path d="M318 574 c-15 -8 -31 -26 -34 -41 -11 -44 14 -75 81 -99 68 -24 86
-44 65 -69 -18 -22 -92 -15 -121 11 -17 16 -22 16 -29 4 -16 -25 -11 -39 18
-54 55 -28 134 -24 167 9 51 50 22 110 -66 137 -21 6 -46 19 -54 28 -15 16
-14 19 0 34 20 20 45 20 89 2 32 -13 34 -13 44 9 10 21 8 25 -20 34 -43 15
-108 13 -140 -5z"/>
<path d="M605 578 c-90 -49 -109 -148 -44 -223 99 -112 289 -22 258 122 -9 47
-33 78 -72 97 -40 18 -112 21 -142 4z m133 -53 c73 -61 33 -175 -61 -175 -49
0 -73 13 -92 50 -24 46 -19 78 19 116 43 43 90 46 134 9z"/>
<path d="M877 448 c1 -79 4 -142 7 -140 3 1 42 2 86 2 73 0 80 2 80 20 0 18
-7 20 -66 20 l-65 0 3 120 3 120 -25 0 -25 0 2 -142z"/>
<path d="M1126 459 c-32 -72 -59 -136 -62 -143 -2 -6 6 -11 21 -11 19 0 28 7
36 33 l11 32 74 0 74 0 13 -32 c11 -25 21 -33 41 -34 17 -1 25 2 22 10 -3 6
-31 71 -63 144 -53 121 -60 132 -84 132 -24 0 -31 -11 -83 -131z m109 21 c9
-25 19 -51 22 -57 4 -10 -10 -13 -50 -13 l-56 0 27 64 c15 36 30 62 33 58 3
-4 14 -27 24 -52z"/>
<path d="M1455 578 c-90 -49 -109 -148 -44 -223 38 -43 88 -58 143 -44 23 6
50 17 61 25 18 13 18 15 3 30 -15 15 -18 15 -39 0 -48 -33 -120 -14 -148 41
-45 88 66 184 148 127 21 -15 24 -15 38 -1 37 37 -106 76 -162 45z"/>
<path d="M1680 447 l0 -144 25 0 c23 0 25 3 25 43 l0 44 40 0 c36 0 43 -4 67
-42 18 -27 36 -44 51 -45 30 -4 28 12 -8 57 -29 37 -30 39 -12 52 47 33 55
101 18 145 -23 26 -30 28 -115 31 l-91 4 0 -145z m170 83 c42 -42 11 -87 -67
-95 l-53 -6 0 61 0 60 50 0 c37 0 55 -5 70 -20z"/>
<path d="M1962 548 c85 -149 89 -156 86 -199 -3 -37 0 -42 20 -44 20 -1 22 3
22 46 0 39 10 64 54 143 l55 96 -27 0 c-23 0 -33 -11 -66 -71 l-38 -71 -39 71
c-33 59 -44 71 -65 71 l-26 0 24 -42z"/>
<path d="M2236 448 c1 -137 2 -142 23 -143 18 -1 21 4 21 42 l0 43 45 0 c55 0
110 21 124 48 21 39 13 91 -18 123 -28 27 -34 29 -113 29 l-83 0 1 -142z m164
82 c42 -42 11 -87 -67 -96 l-53 -6 0 61 0 61 50 0 c37 0 55 -5 70 -20z"/>
<path d="M2472 573 c2 -14 15 -19 51 -21 l48 -3 -2 -122 c-1 -120 -1 -122 21
-122 22 0 22 2 21 123 l-2 122 50 0 c44 0 51 3 51 20 0 19 -7 20 -121 20 -109
0 -120 -2 -117 -17z"/>
</g>
</svg>
